%TF.GenerationSoftware,KiCad,Pcbnew,10.0.3*%
%TF.CreationDate,2026-08-02T21:28:19+10:00*%
%TF.ProjectId,Cfx-port,4366782d-706f-4727-942e-6b696361645f,rev?*%
%TF.SameCoordinates,Original*%
%TF.FileFunction,Copper,L4,Bot*%
%TF.FilePolarity,Positive*%
%FSLAX46Y46*%
G04 Gerber Fmt 4.6, Leading zero omitted, Abs format (unit mm)*
G04 Created by KiCad (PCBNEW 10.0.3) date 2026-08-02 21:28:19*
%MOMM*%
%LPD*%
G01*
G04 APERTURE LIST*
G04 Aperture macros list*
%AMRoundRect*
0 Rectangle with rounded corners*
0 $1 Rounding radius*
0 $2 $3 $4 $5 $6 $7 $8 $9 X,Y pos of 4 corners*
0 Add a 4 corners polygon primitive as box body*
4,1,4,$2,$3,$4,$5,$6,$7,$8,$9,$2,$3,0*
0 Add four circle primitives for the rounded corners*
1,1,$1+$1,$2,$3*
1,1,$1+$1,$4,$5*
1,1,$1+$1,$6,$7*
1,1,$1+$1,$8,$9*
0 Add four rect primitives between the rounded corners*
20,1,$1+$1,$2,$3,$4,$5,0*
20,1,$1+$1,$4,$5,$6,$7,0*
20,1,$1+$1,$6,$7,$8,$9,0*
20,1,$1+$1,$8,$9,$2,$3,0*%
G04 Aperture macros list end*
%TA.AperFunction,SMDPad,CuDef*%
%ADD10RoundRect,0.249999X0.450001X1.450001X-0.450001X1.450001X-0.450001X-1.450001X0.450001X-1.450001X0*%
%TD*%
%TA.AperFunction,SMDPad,CuDef*%
%ADD11RoundRect,0.100000X-0.100000X0.850000X-0.100000X-0.850000X0.100000X-0.850000X0.100000X0.850000X0*%
%TD*%
%TA.AperFunction,SMDPad,CuDef*%
%ADD12RoundRect,0.100000X-0.130000X-0.100000X0.130000X-0.100000X0.130000X0.100000X-0.130000X0.100000X0*%
%TD*%
%TA.AperFunction,ComponentPad*%
%ADD13R,1.000000X1.000000*%
%TD*%
%TA.AperFunction,SMDPad,CuDef*%
%ADD14RoundRect,0.075000X-0.125000X-0.075000X0.125000X-0.075000X0.125000X0.075000X-0.125000X0.075000X0*%
%TD*%
%TA.AperFunction,SMDPad,CuDef*%
%ADD15RoundRect,0.250000X-0.310000X0.830000X-0.310000X-0.830000X0.310000X-0.830000X0.310000X0.830000X0*%
%TD*%
%TA.AperFunction,ComponentPad*%
%ADD16R,0.850000X0.850000*%
%TD*%
%TA.AperFunction,ComponentPad*%
%ADD17C,0.850000*%
%TD*%
%TA.AperFunction,SMDPad,CuDef*%
%ADD18RoundRect,0.100000X0.130000X0.100000X-0.130000X0.100000X-0.130000X-0.100000X0.130000X-0.100000X0*%
%TD*%
%TA.AperFunction,HeatsinkPad*%
%ADD19C,0.500000*%
%TD*%
%TA.AperFunction,HeatsinkPad*%
%ADD20R,2.410000X3.300000*%
%TD*%
%TA.AperFunction,SMDPad,CuDef*%
%ADD21RoundRect,0.150000X0.825000X0.150000X-0.825000X0.150000X-0.825000X-0.150000X0.825000X-0.150000X0*%
%TD*%
%TA.AperFunction,ComponentPad*%
%ADD22O,2.100000X1.000000*%
%TD*%
%TA.AperFunction,ComponentPad*%
%ADD23O,1.800000X1.000000*%
%TD*%
%TA.AperFunction,SMDPad,CuDef*%
%ADD24RoundRect,0.150000X0.425000X-0.150000X0.425000X0.150000X-0.425000X0.150000X-0.425000X-0.150000X0*%
%TD*%
%TA.AperFunction,SMDPad,CuDef*%
%ADD25RoundRect,0.075000X0.500000X-0.075000X0.500000X0.075000X-0.500000X0.075000X-0.500000X-0.075000X0*%
%TD*%
%TA.AperFunction,ComponentPad*%
%ADD26RoundRect,0.250000X0.600000X0.750000X-0.600000X0.750000X-0.600000X-0.750000X0.600000X-0.750000X0*%
%TD*%
%TA.AperFunction,ComponentPad*%
%ADD27O,1.700000X2.000000*%
%TD*%
%TA.AperFunction,SMDPad,CuDef*%
%ADD28RoundRect,0.150000X0.150000X-0.512500X0.150000X0.512500X-0.150000X0.512500X-0.150000X-0.512500X0*%
%TD*%
%TA.AperFunction,SMDPad,CuDef*%
%ADD29R,1.500000X0.800000*%
%TD*%
%TA.AperFunction,SMDPad,CuDef*%
%ADD30RoundRect,0.362500X-0.637500X0.362500X-0.637500X-0.362500X0.637500X-0.362500X0.637500X0.362500X0*%
%TD*%
%TA.AperFunction,SMDPad,CuDef*%
%ADD31R,0.900000X1.500000*%
%TD*%
%TA.AperFunction,SMDPad,CuDef*%
%ADD32R,1.500000X0.900000*%
%TD*%
%TA.AperFunction,HeatsinkPad*%
%ADD33C,0.600000*%
%TD*%
%TA.AperFunction,HeatsinkPad*%
%ADD34R,3.900000X3.900000*%
%TD*%
%TA.AperFunction,ViaPad*%
%ADD35C,0.600000*%
%TD*%
%TA.AperFunction,Conductor*%
%ADD36C,0.200000*%
%TD*%
G04 APERTURE END LIST*
D10*
%TO.P,C1,1*%
%TO.N,VCC*%
X142665010Y-79524750D03*
%TO.P,C1,2*%
%TO.N,GND*%
X138565010Y-79524750D03*
%TD*%
%TO.P,C2,1*%
%TO.N,VCC*%
X142865010Y-87024750D03*
%TO.P,C2,2*%
%TO.N,GND*%
X138765010Y-87024750D03*
%TD*%
%TO.P,C5,1*%
%TO.N,GND*%
X150865010Y-74674750D03*
%TO.P,C5,2*%
%TO.N,/power-ic/BAT+*%
X146765010Y-74674750D03*
%TD*%
%TO.P,L2,1,1_1*%
%TO.N,/power-ic/VBAT_SW*%
X167665010Y-87024750D03*
%TO.P,L2,2,2_2*%
%TO.N,Net-(U6-SW)*%
X163565010Y-87024750D03*
%TD*%
%TO.P,C6,1*%
%TO.N,GND*%
X167865010Y-79024750D03*
%TO.P,C6,2*%
%TO.N,VCC*%
X163765010Y-79024750D03*
%TD*%
%TO.P,C4,1*%
%TO.N,GND*%
X151165010Y-67524750D03*
%TO.P,C4,2*%
%TO.N,/power-ic/VBAT_SW*%
X147065010Y-67524750D03*
%TD*%
D11*
%TO.P,U7,1,~{INT}_1*%
%TO.N,~{INT}*%
X166740010Y-99624750D03*
%TO.P,U7,2,A1_2*%
%TO.N,GND*%
X167390010Y-99624750D03*
%TO.P,U7,3,A2_3*%
X168040010Y-99624750D03*
%TO.P,U7,4,P00_4*%
%TO.N,/Keypad Matrix/C1*%
X168690010Y-99624750D03*
%TO.P,U7,5,P01_5*%
%TO.N,/Keypad Matrix/C2*%
X169340010Y-99624750D03*
%TO.P,U7,6,P02_6*%
%TO.N,/Keypad Matrix/C3*%
X169990010Y-99624750D03*
%TO.P,U7,7,P03_7*%
%TO.N,/Keypad Matrix/C4*%
X170640010Y-99624750D03*
%TO.P,U7,8,P04_8*%
%TO.N,/Keypad Matrix/C5*%
X171290010Y-99624750D03*
%TO.P,U7,9,P05_9*%
%TO.N,/Keypad Matrix/C6*%
X171940010Y-99624750D03*
%TO.P,U7,10,P06_10*%
%TO.N,/Keypad Matrix/R1*%
X172590010Y-99624750D03*
%TO.P,U7,11,P07_11*%
%TO.N,unconnected-(U7-P07-Pad11)*%
X173240010Y-99624750D03*
%TO.P,U7,12,GND_12*%
%TO.N,GND*%
X173890010Y-99624750D03*
%TO.P,U7,13,P10_13*%
%TO.N,/Keypad Matrix/R2*%
X173890010Y-106624750D03*
%TO.P,U7,14,P11_14*%
%TO.N,/Keypad Matrix/R3*%
X173240010Y-106624750D03*
%TO.P,U7,15,P12_15*%
%TO.N,/Keypad Matrix/R4*%
X172590010Y-106624750D03*
%TO.P,U7,16,P13_16*%
%TO.N,/Keypad Matrix/R5*%
X171940010Y-106624750D03*
%TO.P,U7,17,P14_17*%
%TO.N,/Keypad Matrix/R6*%
X171290010Y-106624750D03*
%TO.P,U7,18,P15_18*%
%TO.N,/Keypad Matrix/R7*%
X170640010Y-106624750D03*
%TO.P,U7,19,P16_19*%
%TO.N,/Keypad Matrix/R8*%
X169990010Y-106624750D03*
%TO.P,U7,20,P17_20*%
%TO.N,/Keypad Matrix/R9*%
X169340010Y-106624750D03*
%TO.P,U7,21,A0_21*%
%TO.N,GND*%
X168690010Y-106624750D03*
%TO.P,U7,22,SCL_22*%
%TO.N,SCL*%
X168040010Y-106624750D03*
%TO.P,U7,23,SDA_23*%
%TO.N,SDA*%
X167390010Y-106624750D03*
%TO.P,U7,24,VCC_24*%
%TO.N,3V3*%
X166740010Y-106624750D03*
%TD*%
D12*
%TO.P,R11,1*%
%TO.N,VCC*%
X132465305Y-70374750D03*
%TO.P,R11,2*%
%TO.N,Net-(U5-~{STDBY})*%
X133105305Y-70374750D03*
%TD*%
D13*
%TO.P,H5,1,1_1*%
%TO.N,/esp32-s3 pinout/DC*%
X153215010Y-51124750D03*
%TD*%
D12*
%TO.P,R9,2*%
%TO.N,GND*%
X126035010Y-66699750D03*
%TO.P,R9,1*%
%TO.N,Net-(J2-CC2)*%
X125395010Y-66699750D03*
%TD*%
D14*
%TO.P,D15,2,A_2*%
%TO.N,Net-(D15-A)*%
X131085305Y-69174750D03*
%TO.P,D15,1,K_1*%
%TO.N,VCC*%
X130585305Y-69174750D03*
%TD*%
D15*
%TO.P,SW10,1,A_1*%
%TO.N,/power-ic/BAT+*%
X149615010Y-80159750D03*
%TO.P,SW10,2,B_2*%
%TO.N,/power-ic/VBAT_SW*%
X149615010Y-86889750D03*
%TD*%
D16*
%TO.P,J1,1,Pin_1_1*%
%TO.N,GND*%
X134715010Y-51124750D03*
D17*
%TO.P,J1,2,Pin_2_2*%
%TO.N,3V3*%
X133715010Y-51124750D03*
%TO.P,J1,3,Pin_3_3*%
%TO.N,VCC*%
X132715010Y-51124750D03*
%TO.P,J1,4,Pin_4_4*%
%TO.N,SDA*%
X131715010Y-51124750D03*
%TO.P,J1,5,Pin_5_5*%
%TO.N,SCL*%
X130715010Y-51124750D03*
%TO.P,J1,6,Pin_6_6*%
%TO.N,/esp32-s3 pinout/MOSI*%
X129715010Y-51124750D03*
%TO.P,J1,7,Pin_7_7*%
%TO.N,/esp32-s3 pinout/MISO*%
X128715010Y-51124750D03*
%TO.P,J1,8,Pin_8_8*%
%TO.N,/esp32-s3 pinout/SCK*%
X127715010Y-51124750D03*
%TO.P,J1,9,Pin_9_9*%
%TO.N,/esp32-s3 pinout/CS1*%
X126715010Y-51124750D03*
%TO.P,J1,10,Pin_10_10*%
%TO.N,/esp32-s3 pinout/~{INT1}*%
X125715010Y-51124750D03*
%TO.P,J1,11,Pin_11_11*%
%TO.N,/esp32-s3 pinout/extra*%
X124715010Y-51124750D03*
%TD*%
D13*
%TO.P,H2,1,1_1*%
%TO.N,/esp32-s3 pinout/SCK*%
X144215010Y-51124750D03*
%TD*%
D18*
%TO.P,R14,1*%
%TO.N,VCC*%
X158103760Y-81581000D03*
%TO.P,R14,2*%
%TO.N,Net-(U6-V_{FB})*%
X157463760Y-81581000D03*
%TD*%
D19*
%TO.P,U5,9,EPAD_9*%
%TO.N,GND*%
X137305010Y-68524750D03*
X137305010Y-69724750D03*
X137305010Y-70924750D03*
D20*
X138005010Y-69724750D03*
D19*
X138705010Y-68524750D03*
X138705010Y-69724750D03*
X138705010Y-70924750D03*
D21*
%TO.P,U5,8,CE_8*%
%TO.N,VCC*%
X135530010Y-67819750D03*
%TO.P,U5,7,~{CHRG}_7*%
%TO.N,Net-(U5-~{CHRG})*%
X135530010Y-69089750D03*
%TO.P,U5,6,~{STDBY}_6*%
%TO.N,Net-(U5-~{STDBY})*%
X135530010Y-70359750D03*
%TO.P,U5,5,BAT_5*%
%TO.N,/power-ic/BAT+*%
X135530010Y-71629750D03*
%TO.P,U5,4,V_{CC}_4*%
%TO.N,/power-ic/VBAT_SW*%
X140480010Y-71629750D03*
%TO.P,U5,3,GND_3*%
%TO.N,GND*%
X140480010Y-70359750D03*
%TO.P,U5,2,PROG_2*%
%TO.N,/power-ic/PROG*%
X140480010Y-69089750D03*
%TO.P,U5,1,TEMP_1*%
%TO.N,GND*%
X140480010Y-67819750D03*
%TD*%
D22*
%TO.P,J2,SH,SHIELD_SH*%
%TO.N,GND*%
X123295010Y-64024750D03*
D23*
X119115010Y-64024750D03*
D22*
X123295010Y-72664750D03*
D23*
X119115010Y-72664750D03*
D24*
%TO.P,J2,B12,GND_B12*%
X123870010Y-71544750D03*
%TO.P,J2,B9,VBUS_B9*%
%TO.N,VCC*%
X123870010Y-70744750D03*
D25*
%TO.P,J2,B8,SBU2_B8*%
%TO.N,unconnected-(J2-SBU2-PadB8)*%
X123870010Y-70094750D03*
%TO.P,J2,B7,D-_B7*%
%TO.N,D-*%
X123870010Y-69094750D03*
%TO.P,J2,B6,D+_B6*%
%TO.N,D+*%
X123870010Y-67594750D03*
%TO.P,J2,B5,CC2_B5*%
%TO.N,Net-(J2-CC2)*%
X123870010Y-66594750D03*
D24*
%TO.P,J2,B4,VBUS_B4*%
%TO.N,VCC*%
X123870010Y-65944750D03*
%TO.P,J2,B1,GND_B1*%
%TO.N,GND*%
X123870010Y-65144750D03*
%TO.P,J2,A12,GND_A12*%
X123870010Y-65144750D03*
%TO.P,J2,A9,VBUS_A9*%
%TO.N,VCC*%
X123870010Y-65944750D03*
D25*
%TO.P,J2,A8,SBU1_A8*%
%TO.N,unconnected-(J2-SBU1-PadA8)*%
X123870010Y-67094750D03*
%TO.P,J2,A7,D-_A7*%
%TO.N,D-*%
X123870010Y-68094750D03*
%TO.P,J2,A6,D+_A6*%
%TO.N,D+*%
X123870010Y-68594750D03*
%TO.P,J2,A5,CC1_A5*%
%TO.N,Net-(J2-CC1)*%
X123870010Y-69594750D03*
D24*
%TO.P,J2,A4,VBUS_A4*%
%TO.N,VCC*%
X123870010Y-70744750D03*
%TO.P,J2,A1,GND_A1*%
%TO.N,GND*%
X123870010Y-71544750D03*
%TD*%
D26*
%TO.P,J4,1,Pin_1_1*%
%TO.N,GND*%
X158715010Y-102324750D03*
D27*
%TO.P,J4,2,Pin_2_2*%
%TO.N,/power-ic/BAT+*%
X156215010Y-102324750D03*
%TD*%
D18*
%TO.P,R1,1*%
%TO.N,/esp32-s3 pinout/CMD*%
X119715010Y-82774750D03*
%TO.P,R1,2*%
%TO.N,VCC*%
X119075010Y-82774750D03*
%TD*%
D13*
%TO.P,H3,1,1_1*%
%TO.N,/esp32-s3 pinout/CS*%
X147215010Y-51124750D03*
%TD*%
%TO.P,H4,1,1_1*%
%TO.N,/esp32-s3 pinout/RST*%
X150215010Y-51124750D03*
%TD*%
D12*
%TO.P,R10,2*%
%TO.N,Net-(U5-~{CHRG})*%
X133105305Y-69174750D03*
%TO.P,R10,1*%
%TO.N,Net-(D15-A)*%
X132465305Y-69174750D03*
%TD*%
D28*
%TO.P,U6,1,SW_1*%
%TO.N,Net-(U6-SW)*%
X158615010Y-85799750D03*
%TO.P,U6,2,GND_2*%
%TO.N,GND*%
X157665010Y-85799750D03*
%TO.P,U6,3,EN_3*%
%TO.N,/power-ic/VBAT_SW*%
X156715010Y-85799750D03*
%TO.P,U6,4,V_{FB}_4*%
%TO.N,Net-(U6-V_{FB})*%
X156715010Y-83524750D03*
%TO.P,U6,5,V_{OUT}_5*%
%TO.N,VCC*%
X157665010Y-83524750D03*
%TO.P,U6,6,V_{IN}_6*%
%TO.N,/power-ic/VBAT_SW*%
X158615010Y-83524750D03*
%TD*%
D18*
%TO.P,R13,1*%
%TO.N,Net-(U6-V_{FB})*%
X155935010Y-81581000D03*
%TO.P,R13,2*%
%TO.N,GND*%
X155295010Y-81581000D03*
%TD*%
%TO.P,R3,1*%
%TO.N,/esp32-s3 pinout/CS*%
X119635010Y-81374750D03*
%TO.P,R3,2*%
%TO.N,VCC*%
X118995010Y-81374750D03*
%TD*%
D13*
%TO.P,H1,1,1_1*%
%TO.N,/esp32-s3 pinout/MOSI*%
X141215010Y-51124750D03*
%TD*%
D29*
%TO.P,J3,1,DAT2_1*%
%TO.N,unconnected-(J3-DAT2-Pad1)*%
X126015010Y-80244750D03*
%TO.P,J3,2,DAT3/CD_2*%
%TO.N,/esp32-s3 pinout/CS*%
X126015010Y-81344750D03*
%TO.P,J3,3,CMD_3*%
%TO.N,/esp32-s3 pinout/CMD*%
X126015010Y-82444750D03*
%TO.P,J3,4,VDD_4*%
%TO.N,VCC*%
X126015010Y-83544750D03*
%TO.P,J3,5,CLK_5*%
%TO.N,/esp32-s3 pinout/SCK*%
X126015010Y-84644750D03*
%TO.P,J3,6,VSS_6*%
%TO.N,GND*%
X126015010Y-85744750D03*
%TO.P,J3,7,DAT0_7*%
%TO.N,/esp32-s3 pinout/MISO*%
X126015010Y-86844750D03*
%TO.P,J3,8,DAT1_8*%
%TO.N,unconnected-(J3-DAT1-Pad8)*%
X126015010Y-87944750D03*
D30*
%TO.P,J3,SH,SHIELD_SH*%
%TO.N,GND*%
X131715010Y-76574750D03*
X123415010Y-76574750D03*
X131715010Y-90324750D03*
X123415010Y-90324750D03*
%TD*%
D15*
%TO.P,SW10,1,A_1*%
%TO.N,/power-ic/BAT+*%
X149615010Y-80159750D03*
%TO.P,SW10,2,B_2*%
%TO.N,/power-ic/VBAT_SW*%
X149615010Y-86889750D03*
%TD*%
D12*
%TO.P,R8,2*%
%TO.N,GND*%
X126035010Y-69699750D03*
%TO.P,R8,1*%
%TO.N,Net-(J2-CC1)*%
X125395010Y-69699750D03*
%TD*%
D18*
%TO.P,R2,1*%
%TO.N,/esp32-s3 pinout/MISO*%
X119715010Y-86774750D03*
%TO.P,R2,2*%
%TO.N,VCC*%
X119075010Y-86774750D03*
%TD*%
D12*
%TO.P,R12,2*%
%TO.N,GND*%
X143505305Y-69074750D03*
%TO.P,R12,1*%
%TO.N,/power-ic/PROG*%
X142865305Y-69074750D03*
%TD*%
D31*
%TO.P,U8,1,GND_1*%
%TO.N,GND*%
X173475010Y-70039750D03*
%TO.P,U8,2,3V3_2*%
%TO.N,VCC*%
X172205010Y-70039750D03*
%TO.P,U8,3,EN_3*%
%TO.N,unconnected-(U8-EN-Pad3)*%
X170935010Y-70039750D03*
%TO.P,U8,4,IO4_4*%
%TO.N,/esp32-s3 pinout/DC*%
X169665010Y-70039750D03*
%TO.P,U8,5,IO5_5*%
%TO.N,/esp32-s3 pinout/RST*%
X168395010Y-70039750D03*
%TO.P,U8,6,IO6_6*%
%TO.N,SCL*%
X167125010Y-70039750D03*
%TO.P,U8,7,IO7_7*%
%TO.N,SDA*%
X165855010Y-70039750D03*
%TO.P,U8,8,IO15_8*%
%TO.N,/esp32-s3 pinout/CS1*%
X164585010Y-70039750D03*
%TO.P,U8,9,IO16_9*%
%TO.N,/esp32-s3 pinout/~{INT1}*%
X163315010Y-70039750D03*
%TO.P,U8,10,IO17_10*%
%TO.N,unconnected-(U8-IO17-Pad10)*%
X162045010Y-70039750D03*
%TO.P,U8,11,IO18_11*%
%TO.N,unconnected-(U8-IO18-Pad11)*%
X160775010Y-70039750D03*
%TO.P,U8,12,IO8_12*%
%TO.N,/esp32-s3 pinout/extra*%
X159505010Y-70039750D03*
%TO.P,U8,13,USB_D-_13*%
%TO.N,D-*%
X158235010Y-70039750D03*
%TO.P,U8,14,USB_D+_14*%
%TO.N,D+*%
X156965010Y-70039750D03*
D32*
%TO.P,U8,15,IO3_15*%
%TO.N,unconnected-(U8-IO3-Pad15)*%
X155715010Y-68274750D03*
%TO.P,U8,16,IO46_16*%
%TO.N,unconnected-(U8-IO46-Pad16)*%
X155715010Y-67004750D03*
%TO.P,U8,17,IO9_17*%
%TO.N,unconnected-(U8-IO9-Pad17)*%
X155715010Y-65734750D03*
%TO.P,U8,18,IO10_18*%
%TO.N,/esp32-s3 pinout/CS*%
X155715010Y-64464750D03*
%TO.P,U8,19,IO11_19*%
%TO.N,~{INT}*%
X155715010Y-63194750D03*
%TO.P,U8,20,IO12_20*%
%TO.N,/esp32-s3 pinout/SCK*%
X155715010Y-61924750D03*
%TO.P,U8,21,IO13_21*%
%TO.N,/esp32-s3 pinout/MOSI*%
X155715010Y-60654750D03*
%TO.P,U8,22,IO14_22*%
%TO.N,/esp32-s3 pinout/MISO*%
X155715010Y-59384750D03*
%TO.P,U8,23,IO21_23*%
%TO.N,unconnected-(U8-IO21-Pad23)*%
X155715010Y-58114750D03*
%TO.P,U8,24,IO47_24*%
%TO.N,unconnected-(U8-IO47-Pad24)*%
X155715010Y-56844750D03*
%TO.P,U8,25,IO48_25*%
%TO.N,unconnected-(U8-IO48-Pad25)*%
X155715010Y-55574750D03*
%TO.P,U8,26,IO45_26*%
%TO.N,unconnected-(U8-IO45-Pad26)*%
X155715010Y-54304750D03*
D31*
%TO.P,U8,27,IO0_27*%
%TO.N,unconnected-(U8-IO0-Pad27)*%
X156965010Y-52539750D03*
%TO.P,U8,28,IO35_28*%
%TO.N,unconnected-(U8-IO35-Pad28)*%
X158235010Y-52539750D03*
%TO.P,U8,29,IO36_29*%
%TO.N,unconnected-(U8-IO36-Pad29)*%
X159505010Y-52539750D03*
%TO.P,U8,30,IO37_30*%
%TO.N,unconnected-(U8-IO37-Pad30)*%
X160775010Y-52539750D03*
%TO.P,U8,31,IO38_31*%
%TO.N,unconnected-(U8-IO38-Pad31)*%
X162045010Y-52539750D03*
%TO.P,U8,32,IO39_32*%
%TO.N,unconnected-(U8-IO39-Pad32)*%
X163315010Y-52539750D03*
%TO.P,U8,33,IO40_33*%
%TO.N,unconnected-(U8-IO40-Pad33)*%
X164585010Y-52539750D03*
%TO.P,U8,34,IO41_34*%
%TO.N,unconnected-(U8-IO41-Pad34)*%
X165855010Y-52539750D03*
%TO.P,U8,35,IO42_35*%
%TO.N,unconnected-(U8-IO42-Pad35)*%
X167125010Y-52539750D03*
%TO.P,U8,36,RXD0_36*%
%TO.N,unconnected-(U8-RXD0-Pad36)*%
X168395010Y-52539750D03*
%TO.P,U8,37,TXD0_37*%
%TO.N,unconnected-(U8-TXD0-Pad37)*%
X169665010Y-52539750D03*
%TO.P,U8,38,IO2_38*%
%TO.N,unconnected-(U8-IO2-Pad38)*%
X170935010Y-52539750D03*
%TO.P,U8,39,IO1_39*%
%TO.N,unconnected-(U8-IO1-Pad39)*%
X172205010Y-52539750D03*
%TO.P,U8,40,GND_40*%
%TO.N,GND*%
X173475010Y-52539750D03*
D33*
%TO.P,U8,41,GND_41*%
X166455010Y-64189750D03*
X165055010Y-64189750D03*
X167155010Y-63489750D03*
X165755010Y-63489750D03*
X164355010Y-63489750D03*
X166455010Y-62789750D03*
D34*
X165755010Y-62789750D03*
D33*
X165055010Y-62789750D03*
X167155010Y-62089750D03*
X165755010Y-62089750D03*
X164355010Y-62089750D03*
X166455010Y-61389750D03*
X165055010Y-61389750D03*
%TD*%
D35*
%TO.N,/Keypad Matrix/R4*%
X174115010Y-92524750D03*
X135115010Y-92024750D03*
X164615010Y-92524750D03*
X126615010Y-92024750D03*
X155115010Y-92024750D03*
X146524750Y-92024750D03*
%TO.N,/Keypad Matrix/R1*%
X166915010Y-66124750D03*
X157515010Y-66124750D03*
X176915010Y-65524750D03*
X122715010Y-62024750D03*
X135115010Y-66124750D03*
%TO.N,/Keypad Matrix/R3*%
X154915010Y-82724750D03*
X144115010Y-82724750D03*
%TO.N,/Keypad Matrix/R7*%
X136215010Y-124124750D03*
X149215010Y-124124750D03*
X123115010Y-124124750D03*
X174215010Y-123624750D03*
X161215010Y-124124750D03*
%TO.N,/Keypad Matrix/R6*%
X149215010Y-111624750D03*
X135715010Y-112924750D03*
X122315010Y-112524750D03*
X175215010Y-111624750D03*
X162215010Y-111624750D03*
%TO.N,/Keypad Matrix/R8*%
X149115010Y-134524750D03*
X175115010Y-135124750D03*
X135915010Y-134524750D03*
X162515010Y-134524750D03*
X123515010Y-135524750D03*
%TO.N,/Keypad Matrix/C3*%
X139515010Y-92524750D03*
%TO.N,/Keypad Matrix/C1*%
X118115010Y-93724750D03*
%TO.N,/Keypad Matrix/R2*%
X169115010Y-74524750D03*
X121115010Y-74024750D03*
X151115010Y-73024750D03*
X175115010Y-73524750D03*
X143515010Y-73024750D03*
X133515010Y-73024750D03*
%TO.N,/Keypad Matrix/R3*%
X133115010Y-81924750D03*
X123115010Y-81524750D03*
X165007210Y-82324750D03*
X176115010Y-82724750D03*
%TO.N,/Keypad Matrix/C4*%
X150115010Y-93124750D03*
%TO.N,/Keypad Matrix/R9*%
X172915010Y-145324750D03*
%TO.N,/Keypad Matrix/C6*%
X171515010Y-91324750D03*
%TO.N,/Keypad Matrix/C2*%
X128115010Y-92524750D03*
%TO.N,/Keypad Matrix/C5*%
X161315010Y-91324750D03*
%TD*%
%TO.N,/Keypad Matrix/C5*%
D36*
X165115010Y-91324750D02*
X166515010Y-92724750D01*
%TO.N,/Keypad Matrix/R3*%
X173240010Y-106624750D02*
X173240010Y-105756294D01*
%TO.N,/Keypad Matrix/C3*%
X170115010Y-94524750D02*
X169315010Y-93724750D01*
%TO.N,GND*%
X167390010Y-99999750D02*
X168040010Y-100649750D01*
%TO.N,/Keypad Matrix/R1*%
X172590010Y-71799750D02*
X166915010Y-66124750D01*
%TO.N,VCC*%
X158103760Y-82423501D02*
X158103760Y-81581000D01*
X157665010Y-83524750D02*
X157665010Y-82862251D01*
X161783760Y-78743501D02*
X158103760Y-82423501D01*
X157665010Y-82862251D02*
X158103760Y-82423501D01*
%TO.N,Net-(U6-V_{FB})*%
X157463760Y-81832250D02*
X156715010Y-82581000D01*
X157463760Y-81581000D02*
X157463760Y-81832250D01*
X156715010Y-82581000D02*
X156715010Y-81692250D01*
X156715010Y-83524750D02*
X156715010Y-82581000D01*
X156715010Y-81692250D02*
X156603760Y-81581000D01*
%TO.N,/power-ic/VBAT_SW*%
X156715010Y-85349750D02*
X156715010Y-85799750D01*
X165783760Y-84331000D02*
X159421260Y-84331000D01*
X159421260Y-84331000D02*
X158615010Y-83524750D01*
X158315009Y-84487250D02*
X157577510Y-84487250D01*
X158615010Y-84187249D02*
X158315009Y-84487250D01*
X157577510Y-84487250D02*
X156715010Y-85349750D01*
X158615010Y-83524750D02*
X158615010Y-84187249D01*
%TO.N,Net-(J2-CC1)*%
X125320010Y-69774750D02*
X125395010Y-69699750D01*
X123595010Y-69774750D02*
X125320010Y-69774750D01*
%TO.N,Net-(J2-CC2)*%
X125320010Y-66774750D02*
X125395010Y-66699750D01*
X123595010Y-66774750D02*
X125320010Y-66774750D01*
%TO.N,Net-(U5-~{CHRG})*%
X135445010Y-69174750D02*
X135530010Y-69089750D01*
%TO.N,D-*%
X124470010Y-68542340D02*
X124202420Y-68274750D01*
X124202420Y-69274750D02*
X124470010Y-69007160D01*
X124470010Y-69007160D02*
X124470010Y-68542340D01*
X124202420Y-68274750D02*
X123595010Y-68274750D01*
X123595010Y-69274750D02*
X124202420Y-69274750D01*
%TO.N,D+*%
X123595010Y-68774750D02*
X122987600Y-68774750D01*
X122720010Y-68042340D02*
X122987600Y-67774750D01*
X122720010Y-68507160D02*
X122720010Y-68042340D01*
X122987600Y-68774750D02*
X122720010Y-68507160D01*
X122987600Y-67774750D02*
X123595010Y-67774750D01*
%TO.N,Net-(U6-SW)*%
X165783760Y-89831000D02*
X162646260Y-89831000D01*
X162646260Y-89831000D02*
X158615010Y-85799750D01*
%TO.N,/power-ic/BAT+*%
X135530010Y-73819455D02*
X135530010Y-71629750D01*
%TO.N,/Keypad Matrix/C5*%
X161315010Y-91324750D02*
X165115010Y-91324750D01*
%TO.N,/Keypad Matrix/C6*%
X171940010Y-91749750D02*
X171515010Y-91324750D01*
%TO.N,/Keypad Matrix/R7*%
X170640010Y-106624750D02*
X170640010Y-120049750D01*
%TO.N,/Keypad Matrix/C3*%
X170115010Y-99499750D02*
X170115010Y-94524750D01*
%TO.N,/Keypad Matrix/C1*%
X118115010Y-93724750D02*
X118915010Y-94524750D01*
%TO.N,/Keypad Matrix/C3*%
X169990010Y-99624750D02*
X170115010Y-99499750D01*
%TO.N,GND*%
X168040010Y-100649750D02*
X169718282Y-102328022D01*
X173890010Y-100556294D02*
X172118282Y-102328022D01*
%TO.N,VCC*%
X127605010Y-70924750D02*
X130005010Y-68524750D01*
%TO.N,Net-(U5-~{STDBY})*%
X135515010Y-70374750D02*
X135530010Y-70359750D01*
%TO.N,/power-ic/BAT+*%
X136385305Y-74674750D02*
X135530010Y-73819455D01*
%TO.N,GND*%
X167390010Y-99624750D02*
X167390010Y-99999750D01*
X168690010Y-105756294D02*
X168690010Y-106624750D01*
%TO.N,/Keypad Matrix/C1*%
X168690010Y-94899750D02*
X168690010Y-99624750D01*
%TO.N,/Keypad Matrix/C5*%
X171040010Y-94284065D02*
X171290010Y-94534065D01*
%TO.N,Net-(U5-~{STDBY})*%
X133105305Y-70374750D02*
X135515010Y-70374750D01*
%TO.N,/Keypad Matrix/R2*%
X173890010Y-106624750D02*
X177515010Y-102999750D01*
%TO.N,VCC*%
X128205010Y-66124750D02*
X123595010Y-66124750D01*
%TO.N,/Keypad Matrix/R9*%
X169340010Y-141749750D02*
X172915010Y-145324750D01*
%TO.N,/Keypad Matrix/R3*%
X173240010Y-105756294D02*
X176115010Y-102881294D01*
%TO.N,/Keypad Matrix/R1*%
X172590010Y-99624750D02*
X172590010Y-71799750D01*
%TO.N,/power-ic/PROG*%
X140495010Y-69074750D02*
X140480010Y-69089750D01*
%TO.N,/power-ic/BAT+*%
X147085305Y-74674750D02*
X136385305Y-74674750D01*
%TO.N,/Keypad Matrix/C3*%
X140715010Y-93724750D02*
X139515010Y-92524750D01*
%TO.N,/Keypad Matrix/C4*%
X169315010Y-93124750D02*
X150115010Y-93124750D01*
%TO.N,/Keypad Matrix/C6*%
X172090010Y-99474750D02*
X171940010Y-99624750D01*
%TO.N,/Keypad Matrix/R3*%
X176115010Y-102881294D02*
X176115010Y-82724750D01*
%TO.N,Net-(U5-~{CHRG})*%
X133190305Y-69089750D02*
X133105305Y-69174750D01*
%TO.N,VCC*%
X123595010Y-70924750D02*
X127605010Y-70924750D01*
%TO.N,/Keypad Matrix/R2*%
X177515010Y-75924750D02*
X175115010Y-73524750D01*
%TO.N,/power-ic/PROG*%
X142865305Y-69074750D02*
X140495010Y-69074750D01*
%TO.N,GND*%
X169718282Y-102328022D02*
X172118282Y-102328022D01*
%TO.N,/Keypad Matrix/R6*%
X171290010Y-107699750D02*
X175215010Y-111624750D01*
%TO.N,/Keypad Matrix/C3*%
X169315010Y-93724750D02*
X140715010Y-93724750D01*
%TO.N,/Keypad Matrix/C4*%
X170640010Y-94449750D02*
X169315010Y-93124750D01*
%TO.N,/Keypad Matrix/C5*%
X171290010Y-94534065D02*
X171290010Y-99624750D01*
X166515010Y-92724750D02*
X169480696Y-92724750D01*
X169480696Y-92724750D02*
X171040010Y-94284065D01*
%TO.N,/Keypad Matrix/R2*%
X177515010Y-102999750D02*
X177515010Y-75924750D01*
%TO.N,VCC*%
X130005010Y-68524750D02*
X130005010Y-67819750D01*
%TO.N,/Keypad Matrix/C6*%
X171940010Y-99624750D02*
X171940010Y-91749750D01*
%TO.N,GND*%
X173890010Y-99624750D02*
X173890010Y-100556294D01*
X168040010Y-99624750D02*
X168040010Y-100649750D01*
%TO.N,/Keypad Matrix/R6*%
X171290010Y-106624750D02*
X171290010Y-107699750D01*
%TO.N,/power-ic/VBAT_SW*%
X140685305Y-71758750D02*
X140556305Y-71629750D01*
%TO.N,/Keypad Matrix/C2*%
X169340010Y-99624750D02*
X169340010Y-94549750D01*
X169340010Y-94549750D02*
X168915010Y-94124750D01*
X168915010Y-94124750D02*
X129515010Y-94124750D01*
X129515010Y-94124750D02*
X128115010Y-92724750D01*
%TO.N,VCC*%
X130005010Y-67819750D02*
X129900010Y-67819750D01*
%TO.N,Net-(D15-A)*%
X131085305Y-69174750D02*
X132465305Y-69174750D01*
%TO.N,GND*%
X172118282Y-102328022D02*
X168690010Y-105756294D01*
%TO.N,Net-(U5-~{CHRG})*%
X135530010Y-69089750D02*
X133190305Y-69089750D01*
%TO.N,/Keypad Matrix/C1*%
X168315010Y-94524750D02*
X168690010Y-94899750D01*
%TO.N,VCC*%
X130005010Y-67819750D02*
X135530010Y-67819750D01*
X129900010Y-67819750D02*
X128205010Y-66124750D01*
%TO.N,/Keypad Matrix/C5*%
X171315010Y-99599750D02*
X171290010Y-99624750D01*
%TO.N,/Keypad Matrix/R9*%
X169340010Y-106624750D02*
X169340010Y-141749750D01*
%TO.N,VCC*%
X135330305Y-67819750D02*
X135530010Y-67819750D01*
%TO.N,/Keypad Matrix/R7*%
X170640010Y-120049750D02*
X174215010Y-123624750D01*
%TO.N,/Keypad Matrix/C4*%
X170640010Y-99624750D02*
X170640010Y-94449750D01*
%TO.N,/Keypad Matrix/R8*%
X169990010Y-129999750D02*
X175115010Y-135124750D01*
%TO.N,/Keypad Matrix/C1*%
X118915010Y-94524750D02*
X168315010Y-94524750D01*
%TO.N,/Keypad Matrix/R8*%
X169990010Y-106624750D02*
X169990010Y-129999750D01*
%TO.N,/Keypad Matrix/C2*%
X128115010Y-92724750D02*
X128115010Y-92524750D01*
%TO.N,/power-ic/VBAT_SW*%
X140480010Y-71629750D02*
X142310010Y-71629750D01*
X142310010Y-71629750D02*
X146415010Y-67524750D01*
%TD*%
M02*
