%TF.GenerationSoftware,KiCad,Pcbnew,10.0.3*%
%TF.CreationDate,2026-08-02T21:28:20+10:00*%
%TF.ProjectId,Cfx-port,4366782d-706f-4727-942e-6b696361645f,rev?*%
%TF.SameCoordinates,Original*%
%TF.FileFunction,Soldermask,Bot*%
%TF.FilePolarity,Negative*%
%FSLAX46Y46*%
G04 Gerber Fmt 4.6, Leading zero omitted, Abs format (unit mm)*
G04 Created by KiCad (PCBNEW 10.0.3) date 2026-08-02 21:28:20*
%MOMM*%
%LPD*%
G01*
G04 APERTURE LIST*
G04 Aperture macros list*
%AMRoundRect*
0 Rectangle with rounded corners*
0 $1 Rounding radius*
0 $2 $3 $4 $5 $6 $7 $8 $9 X,Y pos of 4 corners*
0 Add a 4 corners polygon primitive as box body*
4,1,4,$2,$3,$4,$5,$6,$7,$8,$9,$2,$3,0*
0 Add four circle primitives for the rounded corners*
1,1,$1+$1,$2,$3*
1,1,$1+$1,$4,$5*
1,1,$1+$1,$6,$7*
1,1,$1+$1,$8,$9*
0 Add four rect primitives between the rounded corners*
20,1,$1+$1,$2,$3,$4,$5,0*
20,1,$1+$1,$4,$5,$6,$7,0*
20,1,$1+$1,$6,$7,$8,$9,0*
20,1,$1+$1,$8,$9,$2,$3,0*%
G04 Aperture macros list end*
%ADD10RoundRect,0.249999X0.450001X1.450001X-0.450001X1.450001X-0.450001X-1.450001X0.450001X-1.450001X0*%
%ADD11RoundRect,0.100000X-0.100000X0.850000X-0.100000X-0.850000X0.100000X-0.850000X0.100000X0.850000X0*%
%ADD12RoundRect,0.100000X-0.130000X-0.100000X0.130000X-0.100000X0.130000X0.100000X-0.130000X0.100000X0*%
%ADD13R,1.000000X1.000000*%
%ADD14RoundRect,0.075000X-0.125000X-0.075000X0.125000X-0.075000X0.125000X0.075000X-0.125000X0.075000X0*%
%ADD15RoundRect,0.250000X-0.310000X0.830000X-0.310000X-0.830000X0.310000X-0.830000X0.310000X0.830000X0*%
%ADD16R,0.850000X0.850000*%
%ADD17C,0.850000*%
%ADD18RoundRect,0.100000X0.130000X0.100000X-0.130000X0.100000X-0.130000X-0.100000X0.130000X-0.100000X0*%
%ADD19R,2.410000X3.300000*%
%ADD20RoundRect,0.150000X0.825000X0.150000X-0.825000X0.150000X-0.825000X-0.150000X0.825000X-0.150000X0*%
%ADD21O,2.100000X1.000000*%
%ADD22O,1.800000X1.000000*%
%ADD23RoundRect,0.150000X0.425000X-0.150000X0.425000X0.150000X-0.425000X0.150000X-0.425000X-0.150000X0*%
%ADD24RoundRect,0.075000X0.500000X-0.075000X0.500000X0.075000X-0.500000X0.075000X-0.500000X-0.075000X0*%
%ADD25C,0.650000*%
%ADD26RoundRect,0.250000X0.600000X0.750000X-0.600000X0.750000X-0.600000X-0.750000X0.600000X-0.750000X0*%
%ADD27O,1.700000X2.000000*%
%ADD28RoundRect,0.150000X0.150000X-0.512500X0.150000X0.512500X-0.150000X0.512500X-0.150000X-0.512500X0*%
%ADD29R,1.500000X0.800000*%
%ADD30RoundRect,0.362500X-0.637500X0.362500X-0.637500X-0.362500X0.637500X-0.362500X0.637500X0.362500X0*%
%ADD31R,0.900000X1.500000*%
%ADD32R,1.500000X0.900000*%
%ADD33C,0.600000*%
%ADD34R,3.900000X3.900000*%
G04 APERTURE END LIST*
D10*
%TO.C,C1*%
X142665010Y-79524750D03*
X138565010Y-79524750D03*
%TD*%
%TO.C,C2*%
X142865010Y-87024750D03*
X138765010Y-87024750D03*
%TD*%
%TO.C,C5*%
X150865010Y-74674750D03*
X146765010Y-74674750D03*
%TD*%
%TO.C,L2*%
X167665010Y-87024750D03*
X163565010Y-87024750D03*
%TD*%
%TO.C,C6*%
X167865010Y-79024750D03*
X163765010Y-79024750D03*
%TD*%
%TO.C,C4*%
X151165010Y-67524750D03*
X147065010Y-67524750D03*
%TD*%
D11*
%TO.C,U7*%
X166740010Y-99624750D03*
X167390010Y-99624750D03*
X168040010Y-99624750D03*
X168690010Y-99624750D03*
X169340010Y-99624750D03*
X169990010Y-99624750D03*
X170640010Y-99624750D03*
X171290010Y-99624750D03*
X171940010Y-99624750D03*
X172590010Y-99624750D03*
X173240010Y-99624750D03*
X173890010Y-99624750D03*
X173890010Y-106624750D03*
X173240010Y-106624750D03*
X172590010Y-106624750D03*
X171940010Y-106624750D03*
X171290010Y-106624750D03*
X170640010Y-106624750D03*
X169990010Y-106624750D03*
X169340010Y-106624750D03*
X168690010Y-106624750D03*
X168040010Y-106624750D03*
X167390010Y-106624750D03*
X166740010Y-106624750D03*
%TD*%
D12*
%TO.C,R11*%
X132465305Y-70374750D03*
X133105305Y-70374750D03*
%TD*%
D13*
%TO.C,H5*%
X153215010Y-51124750D03*
%TD*%
D12*
%TO.C,R9*%
X126035010Y-66699750D03*
X125395010Y-66699750D03*
%TD*%
D14*
%TO.C,D15*%
X131085305Y-69174750D03*
X130585305Y-69174750D03*
%TD*%
D15*
%TO.C,SW10*%
X149615010Y-80159750D03*
X149615010Y-86889750D03*
%TD*%
D16*
%TO.C,J1*%
X134715010Y-51124750D03*
D17*
X133715010Y-51124750D03*
X132715010Y-51124750D03*
X131715010Y-51124750D03*
X130715010Y-51124750D03*
X129715010Y-51124750D03*
X128715010Y-51124750D03*
X127715010Y-51124750D03*
X126715010Y-51124750D03*
X125715010Y-51124750D03*
X124715010Y-51124750D03*
%TD*%
D13*
%TO.C,H2*%
X144215010Y-51124750D03*
%TD*%
D18*
%TO.C,R14*%
X158103760Y-81581000D03*
X157463760Y-81581000D03*
%TD*%
D19*
%TO.C,U5*%
X138005010Y-69724750D03*
D20*
X135530010Y-67819750D03*
X135530010Y-69089750D03*
X135530010Y-70359750D03*
X135530010Y-71629750D03*
X140480010Y-71629750D03*
X140480010Y-70359750D03*
X140480010Y-69089750D03*
X140480010Y-67819750D03*
%TD*%
D21*
%TO.C,J2*%
X123295010Y-64024750D03*
D22*
X119115010Y-64024750D03*
D21*
X123295010Y-72664750D03*
D22*
X119115010Y-72664750D03*
D23*
X123870010Y-71544750D03*
X123870010Y-70744750D03*
D24*
X123870010Y-70094750D03*
X123870010Y-69094750D03*
X123870010Y-67594750D03*
X123870010Y-66594750D03*
D23*
X123870010Y-65944750D03*
X123870010Y-65144750D03*
X123870010Y-65144750D03*
X123870010Y-65944750D03*
D24*
X123870010Y-67094750D03*
X123870010Y-68094750D03*
X123870010Y-68594750D03*
X123870010Y-69594750D03*
D23*
X123870010Y-70744750D03*
X123870010Y-71544750D03*
D25*
X122795010Y-65454750D03*
X122795010Y-71234750D03*
%TD*%
D26*
%TO.C,J4*%
X158715010Y-102324750D03*
D27*
X156215010Y-102324750D03*
%TD*%
D18*
%TO.C,R1*%
X119715010Y-82774750D03*
X119075010Y-82774750D03*
%TD*%
D13*
%TO.C,H3*%
X147215010Y-51124750D03*
%TD*%
%TO.C,H4*%
X150215010Y-51124750D03*
%TD*%
D12*
%TO.C,R10*%
X133105305Y-69174750D03*
X132465305Y-69174750D03*
%TD*%
D28*
%TO.C,U6*%
X158615010Y-85799750D03*
X157665010Y-85799750D03*
X156715010Y-85799750D03*
X156715010Y-83524750D03*
X157665010Y-83524750D03*
X158615010Y-83524750D03*
%TD*%
D18*
%TO.C,R13*%
X155935010Y-81581000D03*
X155295010Y-81581000D03*
%TD*%
%TO.C,R3*%
X119635010Y-81374750D03*
X118995010Y-81374750D03*
%TD*%
D13*
%TO.C,H1*%
X141215010Y-51124750D03*
%TD*%
D29*
%TO.C,J3*%
X126015010Y-80244750D03*
X126015010Y-81344750D03*
X126015010Y-82444750D03*
X126015010Y-83544750D03*
X126015010Y-84644750D03*
X126015010Y-85744750D03*
X126015010Y-86844750D03*
X126015010Y-87944750D03*
D30*
X131715010Y-76574750D03*
X123415010Y-76574750D03*
X131715010Y-90324750D03*
X123415010Y-90324750D03*
%TD*%
D15*
%TO.C,SW10*%
X149615010Y-80159750D03*
X149615010Y-86889750D03*
%TD*%
D12*
%TO.C,R8*%
X126035010Y-69699750D03*
X125395010Y-69699750D03*
%TD*%
D18*
%TO.C,R2*%
X119715010Y-86774750D03*
X119075010Y-86774750D03*
%TD*%
D12*
%TO.C,R12*%
X143505305Y-69074750D03*
X142865305Y-69074750D03*
%TD*%
D31*
%TO.C,U8*%
X173475010Y-70039750D03*
X172205010Y-70039750D03*
X170935010Y-70039750D03*
X169665010Y-70039750D03*
X168395010Y-70039750D03*
X167125010Y-70039750D03*
X165855010Y-70039750D03*
X164585010Y-70039750D03*
X163315010Y-70039750D03*
X162045010Y-70039750D03*
X160775010Y-70039750D03*
X159505010Y-70039750D03*
X158235010Y-70039750D03*
X156965010Y-70039750D03*
D32*
X155715010Y-68274750D03*
X155715010Y-67004750D03*
X155715010Y-65734750D03*
X155715010Y-64464750D03*
X155715010Y-63194750D03*
X155715010Y-61924750D03*
X155715010Y-60654750D03*
X155715010Y-59384750D03*
X155715010Y-58114750D03*
X155715010Y-56844750D03*
X155715010Y-55574750D03*
X155715010Y-54304750D03*
D31*
X156965010Y-52539750D03*
X158235010Y-52539750D03*
X159505010Y-52539750D03*
X160775010Y-52539750D03*
X162045010Y-52539750D03*
X163315010Y-52539750D03*
X164585010Y-52539750D03*
X165855010Y-52539750D03*
X167125010Y-52539750D03*
X168395010Y-52539750D03*
X169665010Y-52539750D03*
X170935010Y-52539750D03*
X172205010Y-52539750D03*
X173475010Y-52539750D03*
D33*
X166455010Y-64189750D03*
X165055010Y-64189750D03*
X167155010Y-63489750D03*
X165755010Y-63489750D03*
X164355010Y-63489750D03*
X166455010Y-62789750D03*
D34*
X165755010Y-62789750D03*
D33*
X165055010Y-62789750D03*
X167155010Y-62089750D03*
X165755010Y-62089750D03*
X164355010Y-62089750D03*
X166455010Y-61389750D03*
X165055010Y-61389750D03*
%TD*%
M02*
