%TF.GenerationSoftware,KiCad,Pcbnew,10.0.3*%
%TF.CreationDate,2026-08-02T21:28:19+10:00*%
%TF.ProjectId,Cfx-port,4366782d-706f-4727-942e-6b696361645f,rev?*%
%TF.SameCoordinates,Original*%
%TF.FileFunction,Copper,L2,Inr*%
%TF.FilePolarity,Positive*%
%FSLAX46Y46*%
G04 Gerber Fmt 4.6, Leading zero omitted, Abs format (unit mm)*
G04 Created by KiCad (PCBNEW 10.0.3) date 2026-08-02 21:28:19*
%MOMM*%
%LPD*%
G01*
G04 APERTURE LIST*
G04 Aperture macros list*
%AMRoundRect*
0 Rectangle with rounded corners*
0 $1 Rounding radius*
0 $2 $3 $4 $5 $6 $7 $8 $9 X,Y pos of 4 corners*
0 Add a 4 corners polygon primitive as box body*
4,1,4,$2,$3,$4,$5,$6,$7,$8,$9,$2,$3,0*
0 Add four circle primitives for the rounded corners*
1,1,$1+$1,$2,$3*
1,1,$1+$1,$4,$5*
1,1,$1+$1,$6,$7*
1,1,$1+$1,$8,$9*
0 Add four rect primitives between the rounded corners*
20,1,$1+$1,$2,$3,$4,$5,0*
20,1,$1+$1,$4,$5,$6,$7,0*
20,1,$1+$1,$6,$7,$8,$9,0*
20,1,$1+$1,$8,$9,$2,$3,0*%
G04 Aperture macros list end*
%TA.AperFunction,ComponentPad*%
%ADD10R,1.000000X1.000000*%
%TD*%
%TA.AperFunction,ComponentPad*%
%ADD11R,0.850000X0.850000*%
%TD*%
%TA.AperFunction,ComponentPad*%
%ADD12C,0.850000*%
%TD*%
%TA.AperFunction,HeatsinkPad*%
%ADD13C,0.500000*%
%TD*%
%TA.AperFunction,ComponentPad*%
%ADD14O,2.100000X1.000000*%
%TD*%
%TA.AperFunction,ComponentPad*%
%ADD15O,1.800000X1.000000*%
%TD*%
%TA.AperFunction,ComponentPad*%
%ADD16RoundRect,0.250000X0.600000X0.750000X-0.600000X0.750000X-0.600000X-0.750000X0.600000X-0.750000X0*%
%TD*%
%TA.AperFunction,ComponentPad*%
%ADD17O,1.700000X2.000000*%
%TD*%
%TA.AperFunction,HeatsinkPad*%
%ADD18C,0.600000*%
%TD*%
%TA.AperFunction,ViaPad*%
%ADD19C,0.600000*%
%TD*%
%TA.AperFunction,Conductor*%
%ADD20C,0.200000*%
%TD*%
G04 APERTURE END LIST*
D10*
%TO.N,/esp32-s3 pinout/DC*%
%TO.C,H5*%
X153215010Y-51124750D03*
%TD*%
D11*
%TO.N,GND*%
%TO.C,J1*%
X134715010Y-51124750D03*
D12*
%TO.N,3V3*%
X133715010Y-51124750D03*
%TO.N,VCC*%
X132715010Y-51124750D03*
%TO.N,SDA*%
X131715010Y-51124750D03*
%TO.N,SCL*%
X130715010Y-51124750D03*
%TO.N,/esp32-s3 pinout/MOSI*%
X129715010Y-51124750D03*
%TO.N,/esp32-s3 pinout/MISO*%
X128715010Y-51124750D03*
%TO.N,/esp32-s3 pinout/SCK*%
X127715010Y-51124750D03*
%TO.N,/esp32-s3 pinout/CS1*%
X126715010Y-51124750D03*
%TO.N,/esp32-s3 pinout/~{INT1}*%
X125715010Y-51124750D03*
%TO.N,/esp32-s3 pinout/extra*%
X124715010Y-51124750D03*
%TD*%
D10*
%TO.N,/esp32-s3 pinout/SCK*%
%TO.C,H2*%
X144215010Y-51124750D03*
%TD*%
D13*
%TO.N,GND*%
%TO.C,U5*%
X137305010Y-68524750D03*
X137305010Y-69724750D03*
X137305010Y-70924750D03*
X138705010Y-68524750D03*
X138705010Y-69724750D03*
X138705010Y-70924750D03*
%TD*%
D14*
%TO.N,GND*%
%TO.C,J2*%
X123295010Y-64024750D03*
D15*
X119115010Y-64024750D03*
D14*
X123295010Y-72664750D03*
D15*
X119115010Y-72664750D03*
%TD*%
D16*
%TO.N,GND*%
%TO.C,J4*%
X158715010Y-102324750D03*
D17*
%TO.N,/power-ic/BAT+*%
X156215010Y-102324750D03*
%TD*%
D10*
%TO.N,/esp32-s3 pinout/CS*%
%TO.C,H3*%
X147215010Y-51124750D03*
%TD*%
%TO.N,/esp32-s3 pinout/RST*%
%TO.C,H4*%
X150215010Y-51124750D03*
%TD*%
%TO.N,/esp32-s3 pinout/MOSI*%
%TO.C,H1*%
X141215010Y-51124750D03*
%TD*%
D18*
%TO.N,GND*%
%TO.C,U8*%
X166455010Y-64189750D03*
X165055010Y-64189750D03*
X167155010Y-63489750D03*
X165755010Y-63489750D03*
X164355010Y-63489750D03*
X166455010Y-62789750D03*
X165055010Y-62789750D03*
X167155010Y-62089750D03*
X165755010Y-62089750D03*
X164355010Y-62089750D03*
X166455010Y-61389750D03*
X165055010Y-61389750D03*
%TD*%
D19*
%TO.N,/Keypad Matrix/R4*%
X174115010Y-92524750D03*
X135115010Y-92024750D03*
X164615010Y-92524750D03*
X126615010Y-92024750D03*
X155115010Y-92024750D03*
X146524750Y-92024750D03*
%TO.N,/Keypad Matrix/R1*%
X166915010Y-66124750D03*
X157515010Y-66124750D03*
X176915010Y-65524750D03*
X122715010Y-62024750D03*
X135115010Y-66124750D03*
%TO.N,/Keypad Matrix/R3*%
X154915010Y-82724750D03*
X144115010Y-82724750D03*
%TO.N,/Keypad Matrix/R7*%
X136215010Y-124124750D03*
X149215010Y-124124750D03*
X123115010Y-124124750D03*
X174215010Y-123624750D03*
X161215010Y-124124750D03*
%TO.N,/Keypad Matrix/R6*%
X149215010Y-111624750D03*
X135715010Y-112924750D03*
X122315010Y-112524750D03*
X175215010Y-111624750D03*
X162215010Y-111624750D03*
%TO.N,/Keypad Matrix/R8*%
X149115010Y-134524750D03*
X175115010Y-135124750D03*
X135915010Y-134524750D03*
X162515010Y-134524750D03*
X123515010Y-135524750D03*
%TO.N,/Keypad Matrix/C3*%
X139515010Y-92524750D03*
%TO.N,/Keypad Matrix/C1*%
X118115010Y-93724750D03*
%TO.N,/Keypad Matrix/R2*%
X169115010Y-74524750D03*
X121115010Y-74024750D03*
X151115010Y-73024750D03*
X175115010Y-73524750D03*
X143515010Y-73024750D03*
X133515010Y-73024750D03*
%TO.N,/Keypad Matrix/R3*%
X133115010Y-81924750D03*
X123115010Y-81524750D03*
X165007210Y-82324750D03*
X176115010Y-82724750D03*
%TO.N,/Keypad Matrix/C4*%
X150115010Y-93124750D03*
%TO.N,/Keypad Matrix/R9*%
X172915010Y-145324750D03*
%TO.N,/Keypad Matrix/C6*%
X171515010Y-91324750D03*
%TO.N,/Keypad Matrix/C2*%
X128115010Y-92524750D03*
%TO.N,/Keypad Matrix/C5*%
X161315010Y-91324750D03*
%TD*%
%TO.N,/Keypad Matrix/R2*%
D20*
X121115010Y-74024750D02*
X122044325Y-73095435D01*
X122044325Y-73095435D02*
X122413639Y-73464750D01*
X122413639Y-73464750D02*
X124176381Y-73464750D01*
X124176381Y-73464750D02*
X124645010Y-72996121D01*
X133115010Y-72524750D02*
X133615010Y-73024750D01*
X133615010Y-73024750D02*
X151115010Y-73024750D01*
X124645010Y-72996121D02*
X124645010Y-72524750D01*
X124645010Y-72524750D02*
X133115010Y-72524750D01*
%TO.N,/Keypad Matrix/R1*%
X122715010Y-62024750D02*
X122715010Y-65524750D01*
X122715010Y-65524750D02*
X123315010Y-66124750D01*
X123315010Y-66124750D02*
X176315010Y-66124750D01*
X176315010Y-66124750D02*
X176915010Y-65524750D01*
%TO.N,/Keypad Matrix/R4*%
X164115010Y-92024750D02*
X164615010Y-92524750D01*
X155115010Y-92024750D02*
X155015010Y-91924750D01*
X135615010Y-92024750D02*
X126615010Y-92024750D01*
X146615010Y-92024750D02*
X146515010Y-91924750D01*
X164615010Y-92524750D02*
X174115010Y-92524750D01*
X155115010Y-92024750D02*
X164115010Y-92024750D01*
X146515010Y-91924750D02*
X135715010Y-91924750D01*
X155015010Y-91924750D02*
X146715010Y-91924750D01*
X146715010Y-91924750D02*
X146615010Y-92024750D01*
X135715010Y-91924750D02*
X135615010Y-92024750D01*
%TO.N,/Keypad Matrix/R7*%
X123115010Y-124124750D02*
X173715010Y-124124750D01*
X173715010Y-124124750D02*
X174215010Y-123624750D01*
%TO.N,/Keypad Matrix/R6*%
X123415010Y-113624750D02*
X136315010Y-113624750D01*
X175215010Y-112124750D02*
X175215010Y-111624750D01*
X161215010Y-112624750D02*
X161215010Y-113624750D01*
X150215010Y-113624750D02*
X161215010Y-113624750D01*
X150215010Y-112624750D02*
X150215010Y-113624750D01*
X162215010Y-111624750D02*
X161215010Y-112624750D01*
X136315010Y-113624750D02*
X150215010Y-113624750D01*
X173715010Y-113624750D02*
X175215010Y-112124750D01*
X161215010Y-113624750D02*
X173715010Y-113624750D01*
X136315010Y-113524750D02*
X136315010Y-113624750D01*
X122315010Y-112524750D02*
X123415010Y-113624750D01*
X149215010Y-111624750D02*
X150215010Y-112624750D01*
X135715010Y-112924750D02*
X136315010Y-113524750D01*
%TO.N,/Keypad Matrix/R8*%
X136315010Y-134924750D02*
X136315010Y-135524750D01*
X174715010Y-135524750D02*
X175115010Y-135124750D01*
X149315010Y-134724750D02*
X149315010Y-135524750D01*
X163115010Y-135524750D02*
X174715010Y-135524750D01*
X149315010Y-135524750D02*
X163115010Y-135524750D01*
X123515010Y-135524750D02*
X136315010Y-135524750D01*
X149115010Y-134524750D02*
X149315010Y-134724750D01*
X163115010Y-135124750D02*
X163115010Y-135524750D01*
X162515010Y-134524750D02*
X163115010Y-135124750D01*
X135915010Y-134524750D02*
X136315010Y-134924750D01*
X136315010Y-135524750D02*
X149315010Y-135524750D01*
%TO.N,/Keypad Matrix/R2*%
X152615010Y-74524750D02*
X174115010Y-74524750D01*
X174115010Y-74524750D02*
X175115010Y-73524750D01*
X151115010Y-73024750D02*
X152615010Y-74524750D01*
%TO.N,/Keypad Matrix/R3*%
X130315010Y-81924750D02*
X128515010Y-80124750D01*
X165007210Y-82616950D02*
X165007210Y-82324750D01*
X133115010Y-81924750D02*
X130315010Y-81924750D01*
X168115010Y-85724750D02*
X165007210Y-82616950D01*
X165007210Y-82324750D02*
X164607210Y-82724750D01*
X173115010Y-85724750D02*
X168115010Y-85724750D01*
X133715010Y-82724750D02*
X133115010Y-82124750D01*
X164607210Y-82724750D02*
X133715010Y-82724750D01*
X124515010Y-80124750D02*
X123115010Y-81524750D01*
X128515010Y-80124750D02*
X124515010Y-80124750D01*
X176115010Y-82724750D02*
X173115010Y-85724750D01*
%TD*%
M02*
