%TF.GenerationSoftware,KiCad,Pcbnew,10.0.3*%
%TF.CreationDate,2026-08-02T21:28:20+10:00*%
%TF.ProjectId,Cfx-port,4366782d-706f-4727-942e-6b696361645f,rev?*%
%TF.SameCoordinates,Original*%
%TF.FileFunction,Legend,Top*%
%TF.FilePolarity,Positive*%
%FSLAX46Y46*%
G04 Gerber Fmt 4.6, Leading zero omitted, Abs format (unit mm)*
G04 Created by KiCad (PCBNEW 10.0.3) date 2026-08-02 21:28:20*
%MOMM*%
%LPD*%
G01*
G04 APERTURE LIST*
%ADD10C,0.200000*%
%ADD11C,0.300000*%
%ADD12C,0.400000*%
%ADD13C,0.100000*%
G04 APERTURE END LIST*
D10*
X125419342Y-148924750D02*
G75*
G02*
X133010667Y-148915447I3795668J0D01*
G01*
D11*
X128615010Y-63024750D02*
G75*
G02*
X123615010Y-63024750I-2500000J0D01*
G01*
X123615010Y-63024750D02*
G75*
G02*
X128615010Y-63024750I2500000J0D01*
G01*
D12*
X129615010Y-83524750D02*
G75*
G02*
X123615010Y-83524750I-3000000J0D01*
G01*
X123615010Y-83524750D02*
G75*
G02*
X129615010Y-83524750I3000000J0D01*
G01*
X131715010Y-103124750D02*
G75*
G02*
X126715010Y-103124750I-2500000J0D01*
G01*
X126715010Y-103124750D02*
G75*
G02*
X131715010Y-103124750I2500000J0D01*
G01*
D13*
X165809213Y-148724068D02*
G75*
G02*
X172638458Y-148924750I3405797J-400682D01*
G01*
D12*
X170715010Y-102024750D02*
G75*
G02*
X165715010Y-102024750I-2500000J0D01*
G01*
X165715010Y-102024750D02*
G75*
G02*
X170715010Y-102024750I2500000J0D01*
G01*
D11*
X172915010Y-82124750D02*
G75*
G02*
X167315010Y-82124750I-2800000J0D01*
G01*
X167315010Y-82124750D02*
G75*
G02*
X172915010Y-82124750I2800000J0D01*
G01*
X173615010Y-63024750D02*
G75*
G02*
X168615010Y-63024750I-2500000J0D01*
G01*
X168615010Y-63024750D02*
G75*
G02*
X173615010Y-63024750I2500000J0D01*
G01*
%TO.C,D71*%
D13*
X131162220Y-128005447D02*
G75*
G02*
X131062220Y-128005447I-50000J0D01*
G01*
X131062220Y-128005447D02*
G75*
G02*
X131162220Y-128005447I50000J0D01*
G01*
%TO.C,D73*%
X144565010Y-53330750D02*
G75*
G02*
X144465010Y-53330750I-50000J0D01*
G01*
X144465010Y-53330750D02*
G75*
G02*
X144565010Y-53330750I50000J0D01*
G01*
%TO.C,D86*%
X149642790Y-93653303D02*
G75*
G02*
X149542790Y-93653303I-50000J0D01*
G01*
X149542790Y-93653303D02*
G75*
G02*
X149642790Y-93653303I50000J0D01*
G01*
%TO.C,D77*%
X139042790Y-93525303D02*
G75*
G02*
X138942790Y-93525303I-50000J0D01*
G01*
X138942790Y-93525303D02*
G75*
G02*
X139042790Y-93525303I50000J0D01*
G01*
%TO.C,D93*%
X160750000Y-77044667D02*
G75*
G02*
X160650000Y-77044667I-50000J0D01*
G01*
X160650000Y-77044667D02*
G75*
G02*
X160750000Y-77044667I50000J0D01*
G01*
%TO.C,D61*%
X118165010Y-116730750D02*
G75*
G02*
X118065010Y-116730750I-50000J0D01*
G01*
X118065010Y-116730750D02*
G75*
G02*
X118165010Y-116730750I50000J0D01*
G01*
%TO.C,D82*%
X152927230Y-56830197D02*
G75*
G02*
X152827230Y-56830197I-50000J0D01*
G01*
X152827230Y-56830197D02*
G75*
G02*
X152927230Y-56830197I50000J0D01*
G01*
%TO.C,D84*%
X150142790Y-76153303D02*
G75*
G02*
X150042790Y-76153303I-50000J0D01*
G01*
X150042790Y-76153303D02*
G75*
G02*
X150142790Y-76153303I50000J0D01*
G01*
%TO.C,D68*%
X127932790Y-93695303D02*
G75*
G02*
X127832790Y-93695303I-50000J0D01*
G01*
X127832790Y-93695303D02*
G75*
G02*
X127932790Y-93695303I50000J0D01*
G01*
%TO.C,D81*%
X144651671Y-138255508D02*
G75*
G02*
X144551671Y-138255508I-50000J0D01*
G01*
X144551671Y-138255508D02*
G75*
G02*
X144651671Y-138255508I50000J0D01*
G01*
%TO.C,D87*%
X158005010Y-105124750D02*
G75*
G02*
X157905010Y-105124750I-50000J0D01*
G01*
X157905010Y-105124750D02*
G75*
G02*
X158005010Y-105124750I50000J0D01*
G01*
%TO.C,D78*%
X144369430Y-105474811D02*
G75*
G02*
X144269430Y-105474811I-50000J0D01*
G01*
X144269430Y-105474811D02*
G75*
G02*
X144369430Y-105474811I50000J0D01*
G01*
%TO.C,D74*%
X136965010Y-57930750D02*
G75*
G02*
X136865010Y-57930750I-50000J0D01*
G01*
X136865010Y-57930750D02*
G75*
G02*
X136965010Y-57930750I50000J0D01*
G01*
%TO.C,D83*%
X144642790Y-64153303D02*
G75*
G02*
X144542790Y-64153303I-50000J0D01*
G01*
X144542790Y-64153303D02*
G75*
G02*
X144642790Y-64153303I50000J0D01*
G01*
%TO.C,D60*%
X118165010Y-105330750D02*
G75*
G02*
X118065010Y-105330750I-50000J0D01*
G01*
X118065010Y-105330750D02*
G75*
G02*
X118165010Y-105330750I50000J0D01*
G01*
%TO.C,D101*%
X169805010Y-66324750D02*
G75*
G02*
X169705010Y-66324750I-50000J0D01*
G01*
X169705010Y-66324750D02*
G75*
G02*
X169805010Y-66324750I50000J0D01*
G01*
%TO.C,D65*%
X127555010Y-65900750D02*
G75*
G02*
X127455010Y-65900750I-50000J0D01*
G01*
X127455010Y-65900750D02*
G75*
G02*
X127555010Y-65900750I50000J0D01*
G01*
%TO.C,D56*%
X116965010Y-66604750D02*
G75*
G02*
X116865010Y-66604750I-50000J0D01*
G01*
X116865010Y-66604750D02*
G75*
G02*
X116965010Y-66604750I50000J0D01*
G01*
%TO.C,D90*%
X157255010Y-138124750D02*
G75*
G02*
X157155010Y-138124750I-50000J0D01*
G01*
X157155010Y-138124750D02*
G75*
G02*
X157255010Y-138124750I50000J0D01*
G01*
%TO.C,D98*%
X171005010Y-126424750D02*
G75*
G02*
X170905010Y-126424750I-50000J0D01*
G01*
X170905010Y-126424750D02*
G75*
G02*
X171005010Y-126424750I50000J0D01*
G01*
%TO.C,D59*%
X116865010Y-94604750D02*
G75*
G02*
X116765010Y-94604750I-50000J0D01*
G01*
X116765010Y-94604750D02*
G75*
G02*
X116865010Y-94604750I50000J0D01*
G01*
%TO.C,D64*%
X128325580Y-53814606D02*
G75*
G02*
X128225580Y-53814606I-50000J0D01*
G01*
X128225580Y-53814606D02*
G75*
G02*
X128325580Y-53814606I50000J0D01*
G01*
%TO.C,D58*%
X117842790Y-84899303D02*
G75*
G02*
X117742790Y-84899303I-50000J0D01*
G01*
X117742790Y-84899303D02*
G75*
G02*
X117842790Y-84899303I50000J0D01*
G01*
%TO.C,D69*%
X131930010Y-105124750D02*
G75*
G02*
X131830010Y-105124750I-50000J0D01*
G01*
X131830010Y-105124750D02*
G75*
G02*
X131930010Y-105124750I50000J0D01*
G01*
%TO.C,D67*%
X127655010Y-90385860D02*
G75*
G02*
X127555010Y-90385860I-50000J0D01*
G01*
X127555010Y-90385860D02*
G75*
G02*
X127655010Y-90385860I50000J0D01*
G01*
%TO.C,D76*%
X139542790Y-84025303D02*
G75*
G02*
X139442790Y-84025303I-50000J0D01*
G01*
X139442790Y-84025303D02*
G75*
G02*
X139542790Y-84025303I50000J0D01*
G01*
%TO.C,D80*%
X144462220Y-128305447D02*
G75*
G02*
X144362220Y-128305447I-50000J0D01*
G01*
X144362220Y-128305447D02*
G75*
G02*
X144462220Y-128305447I50000J0D01*
G01*
%TO.C,D85*%
X149642790Y-84153303D02*
G75*
G02*
X149542790Y-84153303I-50000J0D01*
G01*
X149542790Y-84153303D02*
G75*
G02*
X149642790Y-84153303I50000J0D01*
G01*
%TO.C,D94*%
X160242790Y-86175303D02*
G75*
G02*
X160142790Y-86175303I-50000J0D01*
G01*
X160142790Y-86175303D02*
G75*
G02*
X160242790Y-86175303I50000J0D01*
G01*
%TO.C,D99*%
X169905010Y-136624750D02*
G75*
G02*
X169805010Y-136624750I-50000J0D01*
G01*
X169805010Y-136624750D02*
G75*
G02*
X169905010Y-136624750I50000J0D01*
G01*
%TO.C,D70*%
X132255010Y-116924750D02*
G75*
G02*
X132155010Y-116924750I-50000J0D01*
G01*
X132155010Y-116924750D02*
G75*
G02*
X132255010Y-116924750I50000J0D01*
G01*
%TO.C,D92*%
X160642790Y-65975303D02*
G75*
G02*
X160542790Y-65975303I-50000J0D01*
G01*
X160542790Y-65975303D02*
G75*
G02*
X160642790Y-65975303I50000J0D01*
G01*
%TO.C,D91*%
X161265010Y-53580750D02*
G75*
G02*
X161165010Y-53580750I-50000J0D01*
G01*
X161165010Y-53580750D02*
G75*
G02*
X161265010Y-53580750I50000J0D01*
G01*
%TO.C,D63*%
X118205010Y-139124750D02*
G75*
G02*
X118105010Y-139124750I-50000J0D01*
G01*
X118105010Y-139124750D02*
G75*
G02*
X118205010Y-139124750I50000J0D01*
G01*
%TO.C,D104*%
X171605010Y-93124750D02*
G75*
G02*
X171505010Y-93124750I-50000J0D01*
G01*
X171505010Y-93124750D02*
G75*
G02*
X171605010Y-93124750I50000J0D01*
G01*
%TO.C,D89*%
X158055010Y-127724750D02*
G75*
G02*
X157955010Y-127724750I-50000J0D01*
G01*
X157955010Y-127724750D02*
G75*
G02*
X158055010Y-127724750I50000J0D01*
G01*
%TO.C,D97*%
X170505010Y-115624750D02*
G75*
G02*
X170405010Y-115624750I-50000J0D01*
G01*
X170405010Y-115624750D02*
G75*
G02*
X170505010Y-115624750I50000J0D01*
G01*
%TO.C,D100*%
X169065010Y-52504750D02*
G75*
G02*
X168965010Y-52504750I-50000J0D01*
G01*
X168965010Y-52504750D02*
G75*
G02*
X169065010Y-52504750I50000J0D01*
G01*
%TO.C,D96*%
X171255010Y-105624750D02*
G75*
G02*
X171155010Y-105624750I-50000J0D01*
G01*
X171155010Y-105624750D02*
G75*
G02*
X171255010Y-105624750I50000J0D01*
G01*
%TO.C,D102*%
X172005010Y-74324750D02*
G75*
G02*
X171905010Y-74324750I-50000J0D01*
G01*
X171905010Y-74324750D02*
G75*
G02*
X172005010Y-74324750I50000J0D01*
G01*
%TO.C,D72*%
X131205010Y-138924750D02*
G75*
G02*
X131105010Y-138924750I-50000J0D01*
G01*
X131105010Y-138924750D02*
G75*
G02*
X131205010Y-138924750I50000J0D01*
G01*
%TO.C,D55*%
X118235580Y-54518606D02*
G75*
G02*
X118135580Y-54518606I-50000J0D01*
G01*
X118135580Y-54518606D02*
G75*
G02*
X118235580Y-54518606I50000J0D01*
G01*
%TO.C,D79*%
X145044461Y-116255508D02*
G75*
G02*
X144944461Y-116255508I-50000J0D01*
G01*
X144944461Y-116255508D02*
G75*
G02*
X145044461Y-116255508I50000J0D01*
G01*
%TO.C,D103*%
X168842790Y-89024750D02*
G75*
G02*
X168742790Y-89024750I-50000J0D01*
G01*
X168742790Y-89024750D02*
G75*
G02*
X168842790Y-89024750I50000J0D01*
G01*
%TO.C,D57*%
X118342790Y-76399303D02*
G75*
G02*
X118242790Y-76399303I-50000J0D01*
G01*
X118242790Y-76399303D02*
G75*
G02*
X118342790Y-76399303I50000J0D01*
G01*
%TO.C,D62*%
X118165010Y-127930750D02*
G75*
G02*
X118065010Y-127930750I-50000J0D01*
G01*
X118065010Y-127930750D02*
G75*
G02*
X118165010Y-127930750I50000J0D01*
G01*
%TO.C,D88*%
X157755010Y-116124750D02*
G75*
G02*
X157655010Y-116124750I-50000J0D01*
G01*
X157655010Y-116124750D02*
G75*
G02*
X157755010Y-116124750I50000J0D01*
G01*
%TO.C,D66*%
X128432790Y-75695303D02*
G75*
G02*
X128332790Y-75695303I-50000J0D01*
G01*
X128332790Y-75695303D02*
G75*
G02*
X128432790Y-75695303I50000J0D01*
G01*
%TO.C,D95*%
X160865010Y-93980750D02*
G75*
G02*
X160765010Y-93980750I-50000J0D01*
G01*
X160765010Y-93980750D02*
G75*
G02*
X160865010Y-93980750I50000J0D01*
G01*
%TO.C,D75*%
X139542790Y-75525303D02*
G75*
G02*
X139442790Y-75525303I-50000J0D01*
G01*
X139442790Y-75525303D02*
G75*
G02*
X139542790Y-75525303I50000J0D01*
G01*
%TD*%
M02*
